# xmcd
#
# Track frame offsets:
#	150
#	15310
#	33097
#	55550
#	71476
#	88043
#	104508
#	115310
#	131494
#	148095
#	162667
#	180374
#	195648
#	212727
#	227745
#	238387
#	257112
#	273458
#
# Disc length: 3872 seconds
#
# Revision: 1
# Processed by: cddbd v1.5.2PL0 Copyright (c) Steve Scherf et al.
# Submitted via: EasyCDDAExtractor 10.2.0.1
#
DISCID=000f1e12
DTITLE=Various Artist - HMG-Christmas 2004
DYEAR=2004
DGENRE=Gospel
TTITLE0=Curt Collins - Mary, Did You Know
TTITLE1=Lynn Geyer - Christmas All Year Through
TTITLE2=Last Light Band - Ring That Bell
TTITLE3=Clint Miller - Mary I Love You
TTITLE4=Gary Meggs - Happy Birthday Jesus
TTITLE5=Margie Cumbie - Not Just Another Baby
TTITLE6=Clint Miller - Christ In Our Christmas
TTITLE7=Steve Free - Just A Baby Boy
TTITLE8=Clint Miller - Angels On High
TTITLE9=Elvis Carden - Christmas Without My Daddy
TTITLE10=Rick Lang - Decorate The Tree With Love
TTITLE11=Southern Dogwood - When They Saw The Star
TTITLE12=Enell Baker - Happy Birthday To Jesus
TTITLE13=Irene Goodnight - Christmas Eve
TTITLE14=Peggy Inks - The Reason
TTITLE15=Bob Rowe - Willie, Play The Drumm
TTITLE16=Blood Washed Band - Joseph, Can't You Make The Donkey Go Faster
TTITLE17=Blood Washed Band - The Angel Rejoiced
EXTD=
EXTT0=
EXTT1=
EXTT2=
EXTT3=
EXTT4=
EXTT5=
EXTT6=
EXTT7=
EXTT8=
EXTT9=
EXTT10=
EXTT11=
EXTT12=
EXTT13=
EXTT14=
EXTT15=
EXTT16=
EXTT17=
PLAYORDER=
